<?xml version="1.0" encoding="UTF-8"?>
<svg xmlns:xodm="http://www.corel.com/coreldraw/odm/2003" xmlns="http://www.w3.org/2000/svg" xmlns:xlink="http://www.w3.org/1999/xlink" version="1.1" id="Layer_1" x="0px" y="0px" viewBox="0 0 2501 394" style="enable-background:new 0 0 2501 394;" xml:space="preserve">
<style type="text/css">
	.st0{stroke:#FFFFFF;stroke-width:1.043;stroke-miterlimit:23.9103;}
</style>
<g id="Layer_x0020_1">
	<g id="_2347934964336">
		<path class="st0" d="M1973.3,339.4c-15.6,0-27.1,11.5-27.1,27.1c0,8.3,3.1,15.6,8.3,19.8c4.2,4.2,10.4,6.3,16.7,6.3h2.1    c14.6,0,27.1-11.5,27.1-27.1c0-14.6-11.5-27.1-27.1-27.1l0,0V339.4z"></path>
		<path class="st0" d="M2473.9,7.7c-14.6,0-27.1,12.5-27.1,27.1s12.5,27.1,27.1,27.1s27.1-12.5,27.1-27.1S2488.5,7.7,2473.9,7.7z"></path>
		<path class="st0" d="M607,31.7c-18.8,17.7-28.2,43.8-28.2,77.2v8.3H534v34.4h44.8v234.7h35.5V151.6h78.2v-34.4h-78.2v-8.3    c0-25,5.2-42.8,17.7-53.2c12.5-11.5,30.2-15.6,55.3-13.6h4.2V8.7h-4.2C652.9,5.6,625.8,14,607,31.7z"></path>
		<path class="st0" d="M866.7,112c-81.4,0-139.8,59.4-139.8,140.8s59.4,140.8,141.8,140.8l0,0c51.1,0,93.9-21.9,117.9-60.5l2.1-4.2    l-31.3-18.8l-2.1,4.2c-15.6,28.2-49,45.9-86.6,45.9c-56.3,0-98-35.5-105.3-88.7h235.7v-4.2c0-2.1,0-4.2,0-6.3s0-4.2,0-7.3    c0-68.8-46.9-141.8-133.5-141.8l0,0H866.7z M763.4,236.1c7.3-53.2,49-90.7,103.3-90.7c51.1,0,89.7,36.5,97,90.7H763.4z"></path>
		<path class="st0" d="M1147.2,1.4l-35.5,35.5v80.3h-57.4v34.4h57.4v167.9c0,26.1,7.3,44.8,20.9,57.4c12.5,10.4,30.2,15.6,53.2,15.6    l0,0c10.4,0,21.9-1,35.5-3.1h3.1v-31.3h-4.2c-30.2,2.1-53.2,3.1-63.6-6.3c-6.3-6.3-9.4-15.6-9.4-31.3V152.7h78.2v-34.4h-78.2V2.5    V1.4z"></path>
		<path class="st0" d="M1516.5,308.1c-16.7,32.3-51.1,52.1-90.7,52.1c-59.4,0-106.4-46.9-106.4-107.4s46.9-107.4,106.4-107.4    c39.6,0,73,19.8,88.7,52.1l2.1,4.2l29.2-17.7l-2.1-3.1c-19.8-42.8-64.7-68.8-117.9-68.8c-80.3,0-141.8,60.5-141.8,140.8    s60.5,140.8,141.8,140.8l0,0c52.1,0,98-26.1,119.9-68.8l2.1-3.1l-29.2-17.7L1516.5,308.1L1516.5,308.1z"></path>
		<path class="st0" d="M1756.3,112c-38.6,0-68.8,15.6-88.7,43.8V1.4l-34.4,35.5v349.4h34.4V244.5c0-61.5,33.4-99.1,87.6-99.1    c45.9,0,73,28.2,73,75.1v166.9h35.5V220.5c0-65.7-41.7-108.5-106.4-108.5l0,0H1756.3z"></path>
		<path class="st0" d="M2311.2,166.2c-25-34.4-63.6-54.2-108.5-54.2c-78.2,0-138.7,61.5-138.7,140.8s61.5,140.8,138.7,140.8    c43.8,0,83.4-19.8,108.5-54.2v48h35.5V117.2h-35.5v48V166.2z M2204.8,360.2c-59.4,0-106.4-46.9-106.4-107.4    s46.9-107.4,106.4-107.4c59.4,0,106.4,46.9,106.4,107.4S2264.2,360.2,2204.8,360.2z"></path>
		<rect x="2457.2" y="117.2" class="st0" width="34.4" height="270.1"></rect>
		<g>
			<rect x="1" y="8.7" class="st0" width="53.2" height="53.2"></rect>
			<rect x="112.6" y="8.7" class="st0" width="53.2" height="53.2"></rect>
			<rect x="225.3" y="8.7" class="st0" width="53.2" height="53.2"></rect>
			<rect x="1" y="120.3" class="st0" width="53.2" height="53.2"></rect>
			<rect x="112.6" y="120.3" class="st0" width="53.2" height="53.2"></rect>
			<rect x="1" y="233" class="st0" width="53.2" height="53.2"></rect>
			<path class="st0" d="M364,19.2c-8.3,0-15.6,7.3-15.6,15.6s7.3,15.6,15.6,15.6c8.3,0,15.6-7.3,15.6-15.6S372.3,19.2,364,19.2z"></path>
			<path class="st0" d="M364,131.8c-8.3,0-15.6,7.3-15.6,15.6c0,8.3,7.3,15.6,15.6,15.6c8.3,0,15.6-7.3,15.6-15.6     C379.6,139.1,372.3,131.8,364,131.8z"></path>
			<path class="st0" d="M364,244.5c-8.3,0-15.6,7.3-15.6,15.6c0,8.3,7.3,15.6,15.6,15.6c8.3,0,15.6-7.3,15.6-15.6     C379.6,251.8,372.3,244.5,364,244.5z"></path>
			<path class="st0" d="M364,356.1c-8.3,0-15.6,7.3-15.6,15.6c0,8.3,7.3,15.6,15.6,15.6c8.3,0,15.6-7.3,15.6-15.6     C379.6,363.4,372.3,356.1,364,356.1z"></path>
			<path class="st0" d="M251.4,131.8c-8.3,0-15.6,7.3-15.6,15.6c0,8.3,7.3,15.6,15.6,15.6c8.3,0,15.6-7.3,15.6-15.6     C267,139.1,259.7,131.8,251.4,131.8z"></path>
			<path class="st0" d="M251.4,244.5c-8.3,0-15.6,7.3-15.6,15.6c0,8.3,7.3,15.6,15.6,15.6c8.3,0,15.6-7.3,15.6-15.6     C267,251.8,259.7,244.5,251.4,244.5z"></path>
			<path class="st0" d="M251.4,356.1c-8.3,0-15.6,7.3-15.6,15.6c0,8.3,7.3,15.6,15.6,15.6c8.3,0,15.6-7.3,15.6-15.6     C267,363.4,259.7,356.1,251.4,356.1z"></path>
			<path class="st0" d="M139.8,244.5c-8.3,0-15.6,7.3-15.6,15.6c0,8.3,7.3,15.6,15.6,15.6c8.3,0,15.6-7.3,15.6-15.6     C155.4,251.8,148.1,244.5,139.8,244.5z"></path>
			<path class="st0" d="M139.8,356.1c-8.3,0-15.6,7.3-15.6,15.6c0,8.3,7.3,15.6,15.6,15.6c8.3,0,15.6-7.3,15.6-15.6     C155.4,363.4,148.1,356.1,139.8,356.1z"></path>
			<path class="st0" d="M27.1,356.1c-8.3,0-15.6,7.3-15.6,15.6c0,8.3,7.3,15.6,15.6,15.6s15.6-7.3,15.6-15.6     C42.8,363.4,35.5,356.1,27.1,356.1z"></path>
		</g>
	</g>
</g>
</svg>
