<svg xmlns="http://www.w3.org/2000/svg" viewBox="0 0 448 512">
  <path fill="#339933" d="M224 508c-6.7 0-13.5-1.8-19.4-5.2l-61.7-36.5c-9.2-5.2-4.8-7-1.7-8 12.3-4.3 14.8-5.2 27.9-12.7 1.4-.8 3.2-.5 4.6.4l47.4 28.1c1.7 1 4.1 1 5.7 0l184.7-106.6c1.7-1 2.8-3 2.8-5V149.3c0-2-1.1-4-2.8-5L228.6 37.7c-1.7-1-4.1-1-5.7 0L38.2 144.3c-1.7 1-2.8 3-2.8 5v213.1c0 2 1.1 4 2.8 5L47 368.3c15.8 9.1 25.7 26.8 25.7 45.9V149.3c0-2 1.1-4 2.8-5L259.4 37.7c1.7-1 4.1-1 5.7 0L425.8 144.3c1.7 1 2.8 3 2.8 5v213.1c0 2-1.1 4-2.8 5L243.4 502.8c-5.9 3.4-12.6 5.2-19.4 5.2zm149.2-210.5c0-38.9-23.3-74.2-56.6-89.5 4.5-10.5 7.1-22.1 7.1-34.6 0-61.9-50.1-112-112-112s-112 50.1-112 112c0 12.5 2.6 24.1 7.1 34.6-33.3 15.3-56.6 50.6-56.6 89.5 0 56.6 45.4 102 102 102 56.6 0 102-45.4 102-102z"/>
</svg> 